<?xml version="1.0" encoding="UTF-8" standalone="no"?>
<!-- Created with Inkscape (http://www.inkscape.org/) -->

<svg
   xmlns:dc="http://purl.org/dc/elements/1.1/"
   xmlns:cc="http://creativecommons.org/ns#"
   xmlns:rdf="http://www.w3.org/1999/02/22-rdf-syntax-ns#"
   xmlns:svg="http://www.w3.org/2000/svg"
   xmlns="http://www.w3.org/2000/svg"
   xmlns:sodipodi="http://sodipodi.sourceforge.net/DTD/sodipodi-0.dtd"
   xmlns:inkscape="http://www.inkscape.org/namespaces/inkscape"
   width="289.60049mm"
   height="209.6299mm"
   viewBox="0 0 1026.1435 742.78311"
   id="svg2"
   version="1.1"
   inkscape:version="0.91 r13725"
   sodipodi:docname="3.1_qs11_problem.svg">
  <defs
     id="defs4">
    <clipPath
       id="clipPath8107"
       clipPathUnits="userSpaceOnUse">
      <path
         inkscape:connector-curvature="0"
         id="path8109"
         d="M 0,0 720,0 720,489 0,489 0,0 Z" />
    </clipPath>
    <clipPath
       id="clipPath8119"
       clipPathUnits="userSpaceOnUse">
      <path
         inkscape:connector-curvature="0"
         id="path8121"
         d="m 0,0 720,0 0,489.6 -720,0 L 0,0 Z" />
    </clipPath>
    <clipPath
       id="clipPath8135"
       clipPathUnits="userSpaceOnUse">
      <path
         inkscape:connector-curvature="0"
         id="path8137"
         d="m 101.54,85.7 534.14,0 0,372.25 -534.14,0 0,-372.25 z" />
    </clipPath>
    <clipPath
       id="clipPath27783"
       clipPathUnits="userSpaceOnUse">
      <path
         inkscape:connector-curvature="0"
         id="path27785"
         d="M 0,0 720,0 720,489 0,489 0,0 Z" />
    </clipPath>
    <clipPath
       id="clipPath27795"
       clipPathUnits="userSpaceOnUse">
      <path
         inkscape:connector-curvature="0"
         id="path27797"
         d="m 0,0 720,0 0,489.6 -720,0 L 0,0 Z" />
    </clipPath>
    <clipPath
       id="clipPath27811"
       clipPathUnits="userSpaceOnUse">
      <path
         inkscape:connector-curvature="0"
         id="path27813"
         d="m 101.54,85.7 534.14,0 0,372.25 -534.14,0 0,-372.25 z" />
    </clipPath>
    <clipPath
       id="clipPath38553"
       clipPathUnits="userSpaceOnUse">
      <path
         inkscape:connector-curvature="0"
         id="path38555"
         d="M 0,0 504,0 504,360 0,360 0,0 Z" />
    </clipPath>
    <clipPath
       id="clipPath38565"
       clipPathUnits="userSpaceOnUse">
      <path
         inkscape:connector-curvature="0"
         id="path38567"
         d="M 0,0 504,0 504,360 0,360 0,0 Z" />
    </clipPath>
    <clipPath
       id="clipPath38581"
       clipPathUnits="userSpaceOnUse">
      <path
         inkscape:connector-curvature="0"
         id="path38583"
         d="m 49.84,37.28 348.96,0 0,308.32 -348.96,0 0,-308.32 z" />
    </clipPath>
    <clipPath
       id="clipPath43466"
       clipPathUnits="userSpaceOnUse">
      <path
         inkscape:connector-curvature="0"
         id="path43468"
         d="M 0,0 794,0 794,595 0,595 0,0 Z" />
    </clipPath>
    <clipPath
       id="clipPath43474"
       clipPathUnits="userSpaceOnUse">
      <path
         style="clip-rule:evenodd"
         inkscape:connector-curvature="0"
         id="path43476"
         d="m 0,-0.2 793.6,0 0,595.2 L 0,595 0,-0.2 Z" />
    </clipPath>
    <clipPath
       id="clipPath43664"
       clipPathUnits="userSpaceOnUse">
      <path
         inkscape:connector-curvature="0"
         id="path43666"
         d="M 0,0 794,0 794,595 0,595 0,0 Z" />
    </clipPath>
    <clipPath
       id="clipPath43672"
       clipPathUnits="userSpaceOnUse">
      <path
         style="clip-rule:evenodd"
         inkscape:connector-curvature="0"
         id="path43674"
         d="m 0,-0.2 793.6,0 0,595.2 L 0,595 0,-0.2 Z" />
    </clipPath>
    <clipPath
       id="clipPath44231"
       clipPathUnits="userSpaceOnUse">
      <path
         inkscape:connector-curvature="0"
         id="path44233"
         d="M 0,0 794,0 794,595 0,595 0,0 Z" />
    </clipPath>
    <clipPath
       id="clipPath44239"
       clipPathUnits="userSpaceOnUse">
      <path
         style="clip-rule:evenodd"
         inkscape:connector-curvature="0"
         id="path44241"
         d="m 0,-0.2 793.6,0 0,595.2 L 0,595 0,-0.2 Z" />
    </clipPath>
    <clipPath
       id="clipPath44473"
       clipPathUnits="userSpaceOnUse">
      <path
         inkscape:connector-curvature="0"
         id="path44475"
         d="M 0,0 794,0 794,595 0,595 0,0 Z" />
    </clipPath>
    <clipPath
       id="clipPath44481"
       clipPathUnits="userSpaceOnUse">
      <path
         style="clip-rule:evenodd"
         inkscape:connector-curvature="0"
         id="path44483"
         d="m 0,-0.2 793.6,0 0,595.2 L 0,595 0,-0.2 Z" />
    </clipPath>
  </defs>
  <sodipodi:namedview
     id="base"
     pagecolor="#ffffff"
     bordercolor="#666666"
     borderopacity="1.0"
     inkscape:pageopacity="0.0"
     inkscape:pageshadow="2"
     inkscape:zoom="0.24748737"
     inkscape:cx="-165.65343"
     inkscape:cy="659.55346"
     inkscape:document-units="px"
     inkscape:current-layer="layer1"
     showgrid="false"
     fit-margin-top="0"
     fit-margin-left="10"
     fit-margin-right="0"
     fit-margin-bottom="0"
     inkscape:window-width="1366"
     inkscape:window-height="741"
     inkscape:window-x="0"
     inkscape:window-y="27"
     inkscape:window-maximized="1" />
  <metadata
     id="metadata7">
    <rdf:RDF>
      <cc:Work
         rdf:about="">
        <dc:format>image/svg+xml</dc:format>
        <dc:type
           rdf:resource="http://purl.org/dc/dcmitype/StillImage" />
        <dc:title></dc:title>
      </cc:Work>
    </rdf:RDF>
  </metadata>
  <g
     inkscape:label="Layer 1"
     inkscape:groupmode="layer"
     id="layer1"
     transform="translate(286.06084,-225.27629)">
    <g
       id="g27787"
       transform="matrix(1.178125,0,0,-1.178125,-179.39757,877.78137)" />
    <g
       id="g27789"
       transform="matrix(1.178125,0,0,-1.178125,-179.39757,877.78137)" />
    <g
       id="g27801"
       transform="matrix(1.178125,0,0,-1.178125,-179.39757,877.78137)" />
    <g
       id="g27803"
       transform="matrix(1.178125,0,0,-1.178125,-179.39757,877.78137)" />
    <g
       id="g27805"
       transform="matrix(1.178125,0,0,-1.178125,-179.39757,877.78137)" />
    <g
       id="g29329"
       transform="matrix(1.178125,0,0,-1.178125,-179.39757,877.78137)" />
    <g
       id="g29331"
       transform="matrix(1.178125,0,0,-1.178125,-179.39757,877.78137)" />
    <g
       id="g29427"
       transform="matrix(1.178125,0,0,-1.178125,-179.39757,877.78137)" />
    <g
       id="g29477"
       transform="matrix(1.178125,0,0,-1.178125,-179.39757,877.78137)" />
    <g
       id="g29479"
       transform="matrix(1.178125,0,0,-1.178125,-179.39757,877.78137)" />
    <g
       id="g29481"
       transform="matrix(1.178125,0,0,-1.178125,-179.39757,877.78137)" />
    <g
       id="g29483"
       transform="matrix(1.178125,0,0,-1.178125,-179.39757,877.78137)" />
    <g
       id="g29485"
       transform="matrix(1.178125,0,0,-1.178125,-179.39757,877.78137)" />
    <g
       id="g29537"
       transform="matrix(1.178125,0,0,-1.178125,-179.39757,877.78137)" />
    <g
       id="g29637"
       transform="matrix(1.178125,0,0,-1.178125,-179.39757,877.78137)" />
    <g
       id="g29639"
       transform="matrix(1.178125,0,0,-1.178125,-179.39757,877.78137)" />
    <g
       id="g29641"
       transform="matrix(1.178125,0,0,-1.178125,-179.39757,877.78137)" />
    <g
       id="g29643"
       transform="matrix(1.178125,0,0,-1.178125,-179.39757,877.78137)" />
    <g
       id="g29651"
       transform="matrix(1.178125,0,0,-1.178125,-179.39757,877.78137)" />
    <g
       id="g29659"
       transform="matrix(1.178125,0,0,-1.178125,-179.39757,877.78137)" />
    <g
       id="g29661"
       transform="matrix(1.178125,0,0,-1.178125,-179.39757,877.78137)" />
    <g
       id="g29663"
       transform="matrix(1.178125,0,0,-1.178125,-179.39757,877.78137)" />
    <g
       id="g29665"
       transform="matrix(1.178125,0,0,-1.178125,-179.39757,877.78137)" />
    <g
       id="g29667"
       transform="matrix(1.178125,0,0,-1.178125,-179.39757,877.78137)" />
    <g
       id="g29673"
       transform="matrix(1.178125,0,0,-1.178125,-179.39757,877.78137)" />
    <g
       id="g29681"
       transform="matrix(1.178125,0,0,-1.178125,-179.39757,877.78137)" />
    <g
       id="g29705"
       transform="matrix(1.178125,0,0,-1.178125,-179.39757,877.78137)" />
    <g
       id="g29713"
       transform="matrix(1.178125,0,0,-1.178125,-179.39757,877.78137)" />
    <g
       id="g29737"
       transform="matrix(1.178125,0,0,-1.178125,-179.39757,877.78137)" />
    <g
       id="g29739"
       transform="matrix(1.178125,0,0,-1.178125,-179.39757,877.78137)" />
    <g
       id="g29741"
       transform="matrix(1.178125,0,0,-1.178125,-179.39757,877.78137)" />
    <g
       id="g29743"
       transform="matrix(1.178125,0,0,-1.178125,-179.39757,877.78137)" />
    <g
       id="g29745"
       transform="matrix(1.178125,0,0,-1.178125,-179.39757,877.78137)" />
    <g
       id="g29747"
       transform="matrix(1.178125,0,0,-1.178125,-179.39757,877.78137)" />
    <g
       id="g29749"
       transform="matrix(1.178125,0,0,-1.178125,-179.39757,877.78137)" />
    <g
       id="g29751"
       transform="matrix(1.178125,0,0,-1.178125,-179.39757,877.78137)" />
    <g
       id="g29753"
       transform="matrix(1.178125,0,0,-1.178125,-179.39757,877.78137)" />
    <g
       id="g29761"
       transform="matrix(1.178125,0,0,-1.178125,-179.39757,877.78137)" />
    <g
       id="g29763"
       transform="matrix(1.178125,0,0,-1.178125,-179.39757,877.78137)" />
    <g
       id="g43458"
       transform="matrix(1.248375,0,0,-1.248375,-160.14555,305.03494)">
      <g
         id="g43460"
         transform="translate(-72.48,-531.11)">
        <g
           id="g43462">
          <g
             id="g43464"
             clip-path="url(#clipPath43466)">
            <g
               id="g43470">
              <g
                 id="g43472"
                 clip-path="url(#clipPath43474)">
                <path
                   d="m 0,595 793.7,0 0,-595.2 L 0,-0.2 0,595 Z"
                   style="fill:#ffffff;fill-opacity:1;fill-rule:evenodd;stroke:none"
                   id="path43478"
                   inkscape:connector-curvature="0" />
                <g
                   id="g43480" />
                <g
                   id="g43482" />
                <g
                   id="g43484">
                  <text
                     transform="matrix(1,0,0,-1,295.1,261.9)"
                     style="font-variant:normal;font-weight:normal;font-size:30px;font-family:Arial;-inkscape-font-specification:ArialMT;writing-mode:lr-tb;fill:#000000;fill-opacity:1;fill-rule:nonzero;stroke:none"
                     id="text43486">
                    <tspan
                       x="0 25.08 45.060001"
                       y="0"
                       sodipodi:role="line"
                       id="tspan43488">MEK</tspan>
                  </text>
                </g>
                <g
                   id="g43490">
                  <text
                     transform="matrix(1,0,0,-1,193.3,50.5)"
                     style="font-variant:normal;font-weight:normal;font-size:30px;font-family:Arial;-inkscape-font-specification:ArialMT;writing-mode:lr-tb;fill:#000000;fill-opacity:1;fill-rule:nonzero;stroke:none"
                     id="text43492">
                    <tspan
                       x="0 16.59 33.27 54.779999 71.459999 86.459999 94.769997 104.67 121.35 138.03 163.11 171.3 187.98 204.66 221.34 238.02"
                       y="0"
                       sodipodi:role="line"
                       id="tspan43494">downstream genes</tspan>
                  </text>
                </g>
                <g
                   id="g43496">
                  <text
                     transform="matrix(1,0,0,-1,38.3,367.3)"
                     style="font-variant:normal;font-weight:normal;font-size:30px;font-family:Arial;-inkscape-font-specification:ArialMT;writing-mode:lr-tb;fill:#000000;fill-opacity:1;fill-rule:nonzero;stroke:none"
                     id="text43498">
                    <tspan
                       x="0 23.309999 43.290001 63.360001 78.870003 94.260002 110.94 127.62 144.3 160.98"
                       y="0"
                       sodipodi:role="line"
                       id="tspan43500">GSK1120212</tspan>
                  </text>
                </g>
                <g
                   id="g43502">
                  <path
                     d="m 208.8,343 70.9,-49.6"
                     style="fill:none;stroke:#800000;stroke-width:4.30158997;stroke-linecap:butt;stroke-linejoin:round;stroke-miterlimit:10;stroke-dasharray:none;stroke-opacity:1"
                     id="path43504"
                     inkscape:connector-curvature="0" />
                </g>
                <path
                   d="m 286.9,301.3 -4.1,-5.8 -4,-5.8 -4.1,-5.8 -0.7,0.5 -0.8,0.6 -0.8,0.5 4.1,5.8 4,5.8 4.1,5.8 0.7,-0.5 0.8,-0.6 0.8,-0.5 z"
                   style="fill:#800000;fill-opacity:1;fill-rule:evenodd;stroke:none"
                   id="path43506"
                   inkscape:connector-curvature="0" />
                <g
                   id="g43508">
                  <path
                     d="M 302.4,227.8 260.1,124.9"
                     style="fill:none;stroke:#008000;stroke-width:2.15078998;stroke-linecap:butt;stroke-linejoin:round;stroke-miterlimit:10;stroke-dasharray:none;stroke-opacity:1"
                     id="path43510"
                     inkscape:connector-curvature="0" />
                </g>
                <path
                   d="m 252,105.4 15.2,17.6 -13.6,5.6 -1.6,-23.2 z"
                   style="fill:#008000;fill-opacity:1;fill-rule:evenodd;stroke:none"
                   id="path43512"
                   inkscape:connector-curvature="0" />
                <g
                   id="g43514">
                  <path
                     d="m 324,227.8 0,-108.5"
                     style="fill:none;stroke:#008000;stroke-width:2.15078998;stroke-linecap:butt;stroke-linejoin:round;stroke-miterlimit:10;stroke-dasharray:none;stroke-opacity:1"
                     id="path43516"
                     inkscape:connector-curvature="0" />
                </g>
                <path
                   d="m 324,98.2 7.4,22.1 -14.8,0 7.4,-22.1 z"
                   style="fill:#008000;fill-opacity:1;fill-rule:evenodd;stroke:none"
                   id="path43518"
                   inkscape:connector-curvature="0" />
                <g
                   id="g43520">
                  <path
                     d="M 352.8,227.8 395.1,124.9"
                     style="fill:none;stroke:#008000;stroke-width:2.15078998;stroke-linecap:butt;stroke-linejoin:round;stroke-miterlimit:10;stroke-dasharray:none;stroke-opacity:1"
                     id="path43522"
                     inkscape:connector-curvature="0" />
                </g>
                <path
                   d="M 403.2,105.4 401.6,128.6 388,123 403.2,105.4 Z"
                   style="fill:#008000;fill-opacity:1;fill-rule:evenodd;stroke:none"
                   id="path43524"
                   inkscape:connector-curvature="0" />
                <g
                   id="g43526">
                  <path
                     d="m 331.2,458.2 0,-130.1"
                     style="fill:none;stroke:#000000;stroke-width:2.15078998;stroke-linecap:butt;stroke-linejoin:round;stroke-miterlimit:10;stroke-dasharray:none;stroke-opacity:1"
                     id="path43528"
                     inkscape:connector-curvature="0" />
                </g>
                <path
                   d="m 331.2,307 7.4,22.1 -14.8,0 7.4,-22.1 z"
                   style="fill:#000000;fill-opacity:1;fill-rule:evenodd;stroke:none"
                   id="path43530"
                   inkscape:connector-curvature="0" />
                <text
                   transform="matrix(1,0,0,-1,287.7,492.3)"
                   style="font-variant:normal;font-weight:normal;font-size:30px;font-family:Arial;-inkscape-font-specification:ArialMT;writing-mode:lr-tb;fill:#000000;fill-opacity:1;fill-rule:nonzero;stroke:none"
                   id="text43532">
                  <tspan
                     x="0 19.98 43.290001 61.650002"
                     y="0"
                     sodipodi:role="line"
                     id="tspan43534">EGFR</tspan>
                </text>
                <text
                   transform="matrix(1,0,0,-1,590.3,468.1)"
                   style="font-variant:normal;font-weight:normal;font-size:30px;font-family:Arial;-inkscape-font-specification:ArialMT;writing-mode:lr-tb;fill:#000000;fill-opacity:1;fill-rule:nonzero;stroke:none"
                   id="text43536">
                  <tspan
                     x="0 23.309999 43.290001 58.799999"
                     y="0"
                     sodipodi:role="line"
                     id="tspan43538">QS11</tspan>
                </text>
                <text
                   transform="matrix(1,0,0,-1,573.3,319.5)"
                   style="font-variant:normal;font-weight:normal;font-size:30px;font-family:Arial;-inkscape-font-specification:ArialMT;writing-mode:lr-tb;fill:#000000;fill-opacity:1;fill-rule:nonzero;stroke:none"
                   id="text43540">
                  <tspan
                     x="0 28.200001 44.880001"
                     y="0"
                     sodipodi:role="line"
                     id="tspan43542">Wnt</tspan>
                </text>
                <g
                   id="g43544">
                  <path
                     d="M 619.2,443.8 608.3,378.2"
                     style="fill:none;stroke:#008000;stroke-width:2.15078998;stroke-linecap:butt;stroke-linejoin:round;stroke-miterlimit:10;stroke-dasharray:none;stroke-opacity:1"
                     id="path43546"
                     inkscape:connector-curvature="0" />
                </g>
                <path
                   d="m 604.8,357.4 10.9,20.6 -14.5,2.4 3.6,-23 z"
                   style="fill:#008000;fill-opacity:1;fill-rule:evenodd;stroke:none"
                   id="path43548"
                   inkscape:connector-curvature="0" />
                <g
                   id="g43550">
                  <path
                     d="m 547.2,314.2 -145,-31.5"
                     style="fill:none;stroke:#008000;stroke-width:2.15078998;stroke-linecap:butt;stroke-linejoin:round;stroke-miterlimit:10;stroke-dasharray:none;stroke-opacity:1"
                     id="path43552"
                     inkscape:connector-curvature="0" />
                </g>
                <path
                   d="m 381.6,278.2 23.2,-2.5 -3.2,14.4 -20,-11.9 z"
                   style="fill:#008000;fill-opacity:1;fill-rule:evenodd;stroke:none"
                   id="path43554"
                   inkscape:connector-curvature="0" />
                <g
                   id="g43556">
                  <path
                     d="m 604.8,278.2 0,-151.7"
                     style="fill:none;stroke:#000000;stroke-width:2.15078998;stroke-linecap:butt;stroke-linejoin:round;stroke-miterlimit:10;stroke-dasharray:none;stroke-opacity:1"
                     id="path43558"
                     inkscape:connector-curvature="0" />
                </g>
                <path
                   d="m 604.8,105.4 7.4,22.1 -14.8,0 7.4,-22.1 z"
                   style="fill:#000000;fill-opacity:1;fill-rule:evenodd;stroke:none"
                   id="path43560"
                   inkscape:connector-curvature="0" />
              </g>
            </g>
          </g>
        </g>
      </g>
    </g>
    <g
       id="g44487"
       transform="matrix(1.248375,0,0,-1.248375,-916.55469,197.36673)" />
    <g
       id="g44489"
       transform="matrix(1.248375,0,0,-1.248375,-916.55469,197.36673)" />
    <path
       inkscape:connector-curvature="0"
       id="path44569"
       style="fill:#729fcf;fill-opacity:1;fill-rule:evenodd;stroke:none"
       d="m -246.73261,657.45058 557.2746,0 0,206.7309 -557.2746,0 0,-206.7309 z m 9.23797,9.23797 538.79865,0 0,188.25495 -538.79865,0 0,-188.25495 z m -9.23797,-9.23797 0,0 z m 557.2746,206.7309 0,0 z" />
    <g
       id="g44571"
       transform="matrix(1.248375,0,0,-1.248375,-273.69751,968.7953)">
      <path
         inkscape:connector-curvature="0"
         id="path44573"
         style="fill:none;stroke:#3465a4;stroke-width:0.80104136;stroke-linecap:butt;stroke-linejoin:round;stroke-miterlimit:10;stroke-dasharray:none;stroke-opacity:1"
         d="m 21.6,249.4 446.4,0 0,-165.6 -446.4,0 0,165.6 z" />
    </g>
    <g
       id="g44575"
       transform="matrix(1.248375,0,0,-1.248375,-273.69751,968.7953)">
      <path
         inkscape:connector-curvature="0"
         id="path44577"
         style="fill:none;stroke:#3465a4;stroke-width:0.80104136;stroke-linecap:butt;stroke-linejoin:round;stroke-miterlimit:10;stroke-dasharray:none;stroke-opacity:1"
         d="m 29,242 431.6,0 0,-150.8 -431.6,0 0,150.8 z" />
    </g>
    <g
       id="g44579"
       transform="matrix(1.248375,0,0,-1.248375,-273.69751,968.7953)">
      <path
         inkscape:connector-curvature="0"
         id="path44581"
         style="fill:none;stroke:#3465a4;stroke-width:0.80104136;stroke-linecap:butt;stroke-linejoin:round;stroke-miterlimit:10;stroke-dasharray:none;stroke-opacity:1"
         d="m 21.6,249.4 0,0 z" />
    </g>
    <g
       id="g44583"
       transform="matrix(1.248375,0,0,-1.248375,-273.69751,968.7953)">
      <path
         inkscape:connector-curvature="0"
         id="path44585"
         style="fill:none;stroke:#3465a4;stroke-width:0.80104136;stroke-linecap:butt;stroke-linejoin:round;stroke-miterlimit:10;stroke-dasharray:none;stroke-opacity:1"
         d="m 468,83.8 0,0 z" />
    </g>
    <g
       id="g44587"
       transform="matrix(1.248375,0,0,-1.248375,-273.69751,968.7953)">
      <text
         id="text44589"
         style="font-variant:normal;font-weight:normal;font-size:30px;font-family:Arial;-inkscape-font-specification:ArialMT;writing-mode:lr-tb;fill:#000000;fill-opacity:1;fill-rule:nonzero;stroke:none"
         transform="matrix(1,0,0,-1,64.7,176.2)">
        <tspan
           id="tspan44591"
           sodipodi:role="line"
           y="0"
           x="0 9.8999996 26.58 43.259998 53.25 69.839996 84.839996 99.839996 106.62 123.3">regression</tspan>
      </text>
    </g>
    <g
       id="g44593"
       transform="matrix(1.248375,0,0,-1.248375,-273.69751,968.7953)">
      <text
         id="text44595"
         style="font-variant:normal;font-weight:normal;font-size:30px;font-family:Arial;-inkscape-font-specification:ArialMT;writing-mode:lr-tb;fill:#000000;fill-opacity:1;fill-rule:nonzero;stroke:none"
         transform="matrix(1,0,0,-1,73.9,142.7)">
        <tspan
           id="tspan44597"
           sodipodi:role="line"
           y="0"
           x="0 15 31.68 46.68 63.27 73.260002 79.919998 96.599998 104.91">covariate</tspan>
      </text>
    </g>
    <path
       d="m 170.33675,720.5067 7.9896,8.1144 -18.22627,18.2263 18.22627,18.2262 -7.9896,7.9896 -18.22627,-18.2262 -18.35111,18.2262 -7.9896,-7.9896 18.35111,-18.2262 -18.35111,-18.2263 8.11443,-8.1144 18.22628,18.3511 18.22627,-18.3511 0,0 z m -18.22627,-18.2263 0,0 z m 0,89.134 0,0 z"
       style="fill:#800000;fill-opacity:1;fill-rule:evenodd;stroke:none"
       id="path43734-2"
       inkscape:connector-curvature="0" />
  </g>
</svg>
